<svg xmlns="http://www.w3.org/2000/svg" width="125" height="20" aria-label="Built on: Blockly" role="img"><title>Built on: Blockly</title><linearGradient id="s" x2="0" y2="100%"><stop offset="0" stop-color="#bbb" stop-opacity=".1"/><stop offset="1" stop-opacity=".1"/></linearGradient><clipPath id="r"><rect width="125" height="20" fill="#fff" rx="3"/></clipPath><g clip-path="url(#r)"><rect width="76" height="20" fill="#5f6368"/><rect width="49" height="20" x="76" fill="#4285f4"/><rect width="125" height="20" fill="url(#s)"/></g><g font-family="Verdana,Geneva,DejaVu Sans,sans-serif" font-size="110" text-anchor="middle" text-rendering="geometricPrecision"><g><path fill="#4285f4" d="M20.1 32C13.4 32 8 37.4 8 44.1V149c0 6.7 5.4 12.1 12.1 12.1H25a20 20 0 0 0 38.5 0H84a8 8 0 0 0 8-8V40l-8-8z" transform="translate(10 2.5) scale(0.073)"/><path fill="#c8d1db" d="M80 32V85l-16.6-9.4a3.6 3.6 0 0 0-5.4 3.1v40.7c0 2.7 3 4.4 5.4 3l16.6-9.3V161h45.4c6.4 0 11.6-5.2 11.6-11.5v-106c0-6.4-5.2-11.5-11.5-11.5z" transform="translate(10 2.5) scale(0.073)"/></g><text x="505" y="150" fill="#010101" fill-opacity=".3" aria-hidden="true" textLength="430" transform="scale(.1)">Built on</text><text x="505" y="140" fill="#fff" textLength="430" transform="scale(.1)">Built on</text><text x="995" y="150" fill="#010101" fill-opacity=".3" aria-hidden="true" textLength="390" transform="scale(.1)">Blockly</text><text x="995" y="140" fill="#fff" textLength="390" transform="scale(.1)">Blockly</text></g></svg>